G04 ================== begin FILE IDENTIFICATION RECORD ==================*
G04 Layout Name:  C:/Users/user/Desktop/work/avrusb500/allegro/AVRUSB500.brd*
G04 Film Name:    BOTTOM*
G04 File Format:  Gerber RS274X*
G04 File Origin:  Cadence Allegro 16.6-S034*
G04 Origin Date:  Fri Jul 19 12:20:11 2019*
G04 *
G04 Layer:  ETCH/BOTTOM*
G04 Layer:  PIN/BOTTOM*
G04 Layer:  VIA CLASS/BOTTOM*
G04 *
G04 Offset:    (0.0000 0.0000)*
G04 Mirror:    No*
G04 Mode:      Positive*
G04 Rotation:  0*
G04 FullContactRelief:  No*
G04 UndefLineWidth:     0.0000*
G04 ================== end FILE IDENTIFICATION RECORD ====================*
%FSLAX25Y25*MOMM*%
%IR0*IPPOS*OFA0.00000B0.00000*MIA0B0*SFA1.00000B1.00000*%
%ADD15O,1.8999X1.1999*%
%ADD14C,.61*%
%ADD13C,1.3211*%
%ADD12R,1.3211X1.3211*%
%ADD10C,1.5751*%
%ADD11R,1.5751X1.5751*%
%ADD16C,.254*%
%ADD17C,.382*%
G75*
%LPD*%
G75*
G54D10*
X381000Y2159000D03*
Y2413000D03*
Y2667000D03*
Y2921000D03*
X952500Y4064000D03*
X1206500D03*
X1460500D03*
X1714500D03*
X7493000Y2603500D03*
Y2349500D03*
Y2095500D03*
Y2857500D03*
G54D11*
X381000Y3175000D03*
X1968500Y4064000D03*
X7493000Y3111500D03*
G54D12*
X825500Y571500D03*
X508000Y1270000D03*
X1460500Y571500D03*
X2349500D03*
X3302000D03*
X4445000D03*
X4826000Y1778000D03*
Y2603500D03*
X8826500Y4000500D03*
X10477500Y2159000D03*
Y3111500D03*
G54D13*
X571500Y571500D03*
X508000Y1524000D03*
X1143000Y2159000D03*
X1079500Y3175000D03*
X1143000Y2730500D03*
X1714500Y571500D03*
X1206500Y1524000D03*
X2603500Y571500D03*
X2222500Y1524000D03*
X2159000Y2159000D03*
X2095500Y3175000D03*
X2159000Y2730500D03*
X3048000Y1524000D03*
X3556000Y571500D03*
X4191000D03*
X3810000Y1524000D03*
X4826000D03*
Y2857500D03*
X4318000Y3683000D03*
X5715000Y698500D03*
X5651500Y1841500D03*
Y1333500D03*
Y2476500D03*
Y3048000D03*
X5715000Y4127500D03*
Y3619500D03*
X5334000Y3683000D03*
X6731000Y698500D03*
X6667500Y1841500D03*
Y1333500D03*
Y2476500D03*
Y3048000D03*
X6731000Y4127500D03*
Y3619500D03*
X7747000Y698500D03*
Y1333500D03*
X8763000Y698500D03*
Y1333500D03*
X8509000Y4000500D03*
X9525000D03*
X9652000Y2159000D03*
Y2921000D03*
X10477500Y1905000D03*
Y2857500D03*
X10541000Y4000500D03*
G54D14*
X2095500Y571500D03*
X3111500Y1905000D03*
X3048000Y2667000D03*
X3365500Y2540000D03*
X3238500D03*
X3302000Y3302000D03*
X3492500Y2603500D03*
X4127500Y2984500D03*
X4889500Y2159000D03*
X4635500Y2349500D03*
X4445000Y2832100D03*
X5270500Y2349500D03*
X6985000Y1206500D03*
X6667500Y2159000D03*
X7556500Y1587500D03*
X8382000Y1841500D03*
X8255000D03*
X8575000Y2415500D03*
X8694400Y3434100D03*
X8636000Y3365500D03*
X8890000Y1587500D03*
X9334500Y3172450D03*
X8816300Y3502700D03*
G54D15*
X10149000Y440000D03*
X9779000D03*
X10149000Y1465000D03*
X9779000D03*
G54D16*
G01X5651500Y2476500D02*
X5270500D01*
X5143500Y2603500D01*
Y3039650D01*
X5071650Y3111500D01*
X4064000D01*
X3797300Y3378200D01*
X1333500D01*
X1206500Y3505200D01*
Y4064000D01*
G01X5715000Y3619500D02*
X5588000Y3492500D01*
X1778000D01*
X1714500Y3556000D01*
Y4064000D01*
G01X5651500Y3048000D02*
X5560040D01*
X5496540Y2984500D01*
X5270500D01*
X5080000Y3175000D01*
X4127500D01*
X3873500Y3429000D01*
X1536700D01*
X1460500Y3505200D01*
Y4064000D01*
G01X3365500Y2540000D02*
X3429000Y2476500D01*
Y2341150D01*
X4487470Y1282680D01*
X4495820D01*
X4826000Y952500D01*
Y762000D01*
X4889500Y698500D01*
X5715000D01*
G01X3048000Y2667000D02*
X3238500Y2857500D01*
X3492500D01*
X4254500Y2095500D01*
X4855980D01*
X4861080Y2090400D01*
X4917920D01*
X4923020Y2095500D01*
X6633980D01*
X6639080Y2090400D01*
X6695920D01*
X6701020Y2095500D01*
X7112000D01*
X7366000Y1841500D01*
X8255000D01*
G01X3492500Y2603500D02*
Y2547600D01*
X3495480Y2544620D01*
Y2507040D01*
X3497600Y2504920D01*
Y2448080D01*
X3492500Y2442980D01*
Y2349500D01*
X4508500Y1333500D01*
X5651500D01*
G01X5270500Y2349500D02*
X4635500D01*
G01X8636000Y3365500D02*
X7382700D01*
X7302500Y3285300D01*
Y2743200D01*
X7226300Y2667000D01*
X5715000D01*
X5651500Y2603500D01*
Y2476500D01*
G01X8694400Y3434100D02*
X7379450D01*
X7183850Y3238500D01*
X5715000D01*
X5651500Y3175000D01*
Y3048000D01*
G01X8816300Y3502700D02*
X7376200D01*
X7239000Y3365500D01*
X5778500D01*
X5715000Y3429000D01*
Y3619500D01*
G01X6731000Y4127500D02*
X6985000Y4381500D01*
X9258300D01*
X9334500Y4305300D01*
Y3172450D01*
G54D17*
G01X2095500Y571500D02*
Y939800D01*
X2171700Y1016000D01*
X2603500D01*
X2730500Y1143000D01*
Y1841500D01*
G01D02*
Y3225800D01*
X2806700Y3302000D01*
X3302000D01*
G01X3111500Y1905000D02*
X2794000D01*
X2730500Y1841500D01*
G01X3238500Y2540000D02*
Y2697400D01*
X3276700Y2735600D01*
X3533500D01*
X4230800Y2038300D01*
X4239850D01*
X4246150Y2032000D01*
X7048500D01*
X7370790Y1709710D01*
X8343800D01*
X8382000Y1747910D01*
Y1841500D01*
G01X4127500Y2984500D02*
Y2908300D01*
X4203700Y2832100D01*
X4445000D01*
G01X4889500Y2159000D02*
X5016500Y2286000D01*
X5227930D01*
X5239430Y2274500D01*
X5301570D01*
X5313070Y2286000D01*
X6540500D01*
X6667500Y2159000D01*
G01X7747000Y698500D02*
X7048500D01*
X6985000Y762000D01*
Y1206500D01*
G01D02*
X8727460D01*
X8763000Y1242040D01*
Y1333500D01*
G01X6667500Y2159000D02*
X6985000Y2476500D01*
X8514000D01*
X8575000Y2415500D01*
G01X7556500Y1587500D02*
X8890000D01*
G01X8575000Y2415500D02*
X8829010D01*
X9403100Y2989590D01*
Y3134980D01*
X9409500Y3141380D01*
Y3250000D01*
X10160000Y4000500D01*
X10541000D01*
G01X8890000Y1587500D02*
Y1651000D01*
X9588500Y2349500D01*
X10287000D01*
X10477500Y2159000D01*
G01D02*
X10604500Y2286000D01*
Y2984500D01*
X10477500Y3111500D01*
M02*
