G04 ================== begin FILE IDENTIFICATION RECORD ==================*
G04 Layout Name:  C:/Users/user/Desktop/work/avrusb500/allegro/AVRUSB500.brd*
G04 Film Name:    MetalT*
G04 File Format:  Gerber RS274X*
G04 File Origin:  Cadence Allegro 16.6-S034*
G04 Origin Date:  Fri Jul 19 12:20:11 2019*
G04 *
G04 Layer:  PIN/PASTEMASK_TOP*
G04 Layer:  PACKAGE GEOMETRY/PASTEMASK_TOP*
G04 *
G04 Offset:    (0.0000 0.0000)*
G04 Mirror:    No*
G04 Mode:      Positive*
G04 Rotation:  0*
G04 FullContactRelief:  No*
G04 UndefLineWidth:     0.0000*
G04 ================== end FILE IDENTIFICATION RECORD ====================*
%FSLAX25Y25*MOMM*%
%IR0*IPPOS*OFA0.00000B0.00000*MIA0B0*SFA1.00000B1.00000*%
%ADD14R,1.7201X.4*%
%ADD11O,.4569X1.778*%
%ADD10O,1.778X.4569*%
%ADD13R,.4569X1.778*%
%ADD12R,1.778X.4569*%
%ADD15R,1.7201X1.1001*%
%LPD*%
G75*
G54D10*
X2896900Y2589500D03*
Y2509500D03*
Y2429500D03*
Y2349500D03*
Y2909600D03*
Y2829600D03*
Y2749500D03*
X3746500Y2429500D03*
Y2509500D03*
Y2589500D03*
Y2669500D03*
Y2749500D03*
Y2829600D03*
Y2909600D03*
X8110200Y2623800D03*
Y2543800D03*
Y2383800D03*
Y2303800D03*
Y2863800D03*
Y2783800D03*
Y2703800D03*
X8959800Y2303800D03*
Y2463800D03*
Y2543800D03*
Y2623800D03*
Y2703800D03*
Y2783800D03*
Y2863800D03*
G54D11*
X3041700Y2204700D03*
X3121700D03*
X3201700D03*
X3281700D03*
X3361700D03*
Y3054300D03*
X3281700D03*
X3201700D03*
X3121700D03*
X3041700D03*
X3521700Y2204700D03*
X3601700D03*
Y3054300D03*
X3441700D03*
X8335000Y2159000D03*
X8415000D03*
X8495000D03*
X8575000D03*
X8655000D03*
X8735100D03*
Y3008600D03*
X8655000D03*
X8495000D03*
X8415000D03*
X8335000D03*
X8255000D03*
X8815100Y2159000D03*
Y3008600D03*
G54D12*
X2896900Y2669500D03*
X3746500Y2349500D03*
X8110200Y2463800D03*
X8959800Y2383800D03*
G54D13*
X3441700Y2204700D03*
X3521700Y3054300D03*
X8255000Y2159000D03*
X8575000Y3008600D03*
G54D14*
X10149000Y952500D03*
Y1082500D03*
Y1017500D03*
Y887500D03*
Y822500D03*
G54D15*
Y725000D03*
Y1180000D03*
M02*
