G04 ================== begin FILE IDENTIFICATION RECORD ==================*
G04 Layout Name:  C:/Users/user/Desktop/work/avrusb500/allegro/AVRUSB500.brd*
G04 Film Name:    SilkT*
G04 File Format:  Gerber RS274X*
G04 File Origin:  Cadence Allegro 16.6-S034*
G04 Origin Date:  Fri Jul 19 12:20:11 2019*
G04 *
G04 Layer:  REF DES/SILKSCREEN_TOP*
G04 Layer:  PACKAGE GEOMETRY/SILKSCREEN_TOP*
G04 Layer:  BOARD GEOMETRY/SILKSCREEN_TOP*
G04 *
G04 Offset:    (0.0000 0.0000)*
G04 Mirror:    No*
G04 Mode:      Positive*
G04 Rotation:  0*
G04 FullContactRelief:  No*
G04 UndefLineWidth:     0.2000*
G04 ================== end FILE IDENTIFICATION RECORD ====================*
%FSLAX25Y25*MOMM*%
%IR0*IPPOS*OFA0.00000B0.00000*MIA0B0*SFA1.00000B1.00000*%
%ADD10C,.203*%
%ADD11C,.254*%
%ADD12C,.2*%
G75*
%LPD*%
G75*
G36*
G01X10249000Y1542500D02*
X9679000D01*
Y372500D01*
X10249000D01*
Y1542500D01*
G37*
G54D10*
G01X793700Y1397000D02*
G02I-285700J0D01*
G01X508000Y2019300D02*
X254000D01*
G01Y2413000D02*
Y2667000D01*
G01Y2159000D02*
Y2413000D01*
G01Y2019300D02*
Y2159000D01*
G01Y3314700D02*
X508000D01*
G01X254000Y3175000D02*
Y3314700D01*
G01Y2921000D02*
Y3175000D01*
G01Y2667000D02*
Y2921000D01*
G01X984200Y571500D02*
G02I-285700J0D01*
G01X508000Y3314700D02*
Y2019300D01*
G01X812800Y3937000D02*
Y4191000D01*
G01X2108200Y3937000D02*
X812800D01*
G01X952500Y4191000D02*
X1206500D01*
G01X812800D02*
X952500D01*
G01X1873200Y571500D02*
G02I-285700J0D01*
G01X1397000Y1524000D02*
X1333500D01*
G01X2032000Y1397000D02*
X1397000D01*
G01D02*
Y1524000D01*
G01D02*
Y1651000D01*
G01D02*
X2032000D01*
G01X1968500Y2603500D02*
X1333500D01*
G01D02*
Y2730500D01*
G01Y2159000D02*
X1270000D01*
G01X1968500Y2032000D02*
X1333500D01*
G01D02*
Y2159000D01*
G01D02*
Y2286000D01*
G01D02*
X1968500D01*
G01X1270000Y3175000D02*
X1206500D01*
G01X1905000Y3048000D02*
X1270000D01*
G01D02*
Y3175000D01*
G01D02*
Y3302000D01*
G01D02*
X1905000D01*
G01X1333500Y2730500D02*
X1270000D01*
G01X1333500D02*
Y2857500D01*
G01D02*
X1968500D01*
G01X1714500Y4191000D02*
X1968500D01*
G01X1460500D02*
X1714500D01*
G01X1206500D02*
X1460500D01*
G01X2762200Y571500D02*
G02I-285700J0D01*
G01X2032000Y1524000D02*
X2095500D01*
G01X2032000Y1651000D02*
Y1524000D01*
G01D02*
Y1397000D01*
G01X1968500Y2730500D02*
Y2603500D01*
G01Y2159000D02*
X2032000D01*
G01X1968500Y2286000D02*
Y2159000D01*
G01D02*
Y2032000D01*
G01X1905000Y3175000D02*
X1968500D01*
G01X1905000Y3302000D02*
Y3175000D01*
G01D02*
Y3048000D01*
G01X1968500Y2730500D02*
X2032000D01*
G01X1968500Y2857500D02*
Y2730500D01*
G01X2108200Y4191000D02*
Y3937000D01*
G01X1968500Y4191000D02*
X2108200D01*
G01X3714700Y571500D02*
G02I-285700J0D01*
G01X2857500Y1778000D02*
X4000500D01*
G01Y1270000D02*
X2857500D01*
G01D02*
Y1778000D01*
G01X4603700Y571500D02*
G02I-285700J0D01*
G01X4000500Y1778000D02*
Y1270000D01*
G01X5111700Y1651000D02*
G02I-285700J0D01*
G01Y2730500D02*
G02I-285700J0D01*
G01X4508500Y3683000D02*
X4445000D01*
G01X4508500Y3556000D02*
Y3683000D01*
G01D02*
Y3810000D01*
G01D02*
X5143500D01*
G01Y3556000D02*
X4508500D01*
G01X5143500Y3683000D02*
X5207000D01*
G01X5143500Y3810000D02*
Y3683000D01*
G01D02*
Y3556000D01*
G01X5905500Y698500D02*
X5842000D01*
G01X6540500Y571500D02*
X5905500D01*
G01D02*
Y698500D01*
G01D02*
Y825500D01*
G01D02*
X6540500D01*
G01X5842000Y1841500D02*
X5778500D01*
G01X5842000Y1714500D02*
Y1841500D01*
G01D02*
Y1968500D01*
G01X6477000Y1714500D02*
X5842000D01*
G01Y1333500D02*
X5778500D01*
G01X6477000Y1206500D02*
X5842000D01*
G01D02*
Y1333500D01*
G01D02*
Y1460500D01*
G01D02*
X6477000D01*
G01X5842000Y1968500D02*
X6477000D01*
G01X5842000Y2476500D02*
X5778500D01*
G01X5842000Y2349500D02*
Y2476500D01*
G01D02*
Y2603500D01*
G01D02*
X6477000D01*
G01Y2349500D02*
X5842000D01*
G01Y3048000D02*
X5778500D01*
G01X5842000Y2921000D02*
Y3048000D01*
G01D02*
Y3175000D01*
G01D02*
X6477000D01*
G01Y2921000D02*
X5842000D01*
G01X5905500Y4127500D02*
X5842000D01*
G01X6540500Y4000500D02*
X5905500D01*
G01D02*
Y4127500D01*
G01D02*
Y4254500D01*
G01Y3619500D02*
X5842000D01*
G01X5905500Y3492500D02*
Y3619500D01*
G01D02*
Y3746500D01*
G01D02*
X6540500D01*
G01Y3492500D02*
X5905500D01*
G01Y4254500D02*
X6540500D01*
G01Y698500D02*
X6604000D01*
G01X6540500Y825500D02*
Y698500D01*
G01D02*
Y571500D01*
G01X6477000Y1841500D02*
X6540500D01*
G01X6477000Y1968500D02*
Y1841500D01*
G01D02*
Y1714500D01*
G01Y1333500D02*
X6540500D01*
G01X6477000Y1460500D02*
Y1333500D01*
G01D02*
Y1206500D01*
G01Y2476500D02*
X6540500D01*
G01X6477000Y2603500D02*
Y2476500D01*
G01D02*
Y2349500D01*
G01Y3048000D02*
X6540500D01*
G01X6477000Y3175000D02*
Y3048000D01*
G01D02*
Y2921000D01*
G01X6540500Y4127500D02*
X6604000D01*
G01X6540500Y4254500D02*
Y4127500D01*
G01D02*
Y4000500D01*
G01Y3619500D02*
X6604000D01*
G01X6540500Y3746500D02*
Y3619500D01*
G01D02*
Y3492500D01*
G01X7937500Y698500D02*
X7874000D01*
G01X8572500Y571500D02*
X7937500D01*
G01D02*
Y698500D01*
G01D02*
Y825500D01*
G01D02*
X8572500D01*
G01X7937500Y1333500D02*
X7874000D01*
G01X8572500Y1206500D02*
X7937500D01*
G01D02*
Y1333500D01*
G01D02*
Y1460500D01*
G01D02*
X8572500D01*
G01X7366000Y1955800D02*
Y2095500D01*
G01D02*
Y2349500D01*
G01D02*
Y2603500D01*
G01D02*
Y2857500D01*
G01X7620000Y3251200D02*
Y1955800D01*
G01D02*
X7366000D01*
G01Y2857500D02*
Y3111500D01*
G01D02*
Y3251200D01*
G01D02*
X7620000D01*
G01X8572500Y698500D02*
X8636000D01*
G01X8572500Y825500D02*
Y698500D01*
G01D02*
Y571500D01*
G01Y1333500D02*
X8636000D01*
G01X8572500Y1460500D02*
Y1333500D01*
G01D02*
Y1206500D01*
G01X8985200Y4000500D02*
G02X8667800Y3683000I-317400J-100D01*
G02Y4318000I0J317500D01*
G02X8985200Y4000500I0J-317400D01*
G01X9398000Y1968500D02*
Y3111500D01*
G01X9906000Y1968500D02*
X9398000D01*
G01Y3111500D02*
X9906000D01*
G01X10763200Y2032000D02*
G02I-285700J0D01*
G01X9906000Y3111500D02*
Y1968500D01*
G01X10763200Y2984500D02*
G02I-285700J0D01*
G01X9715500Y4000500D02*
X9652000D01*
G01X9715500Y3873500D02*
Y4000500D01*
G01D02*
Y4127500D01*
G01D02*
X10350500D01*
G01Y3873500D02*
X9715500D01*
G01X10350500Y4000500D02*
X10414000D01*
G01X10350500Y4127500D02*
Y4000500D01*
G01D02*
Y3873500D01*
G54D11*
G01X3813800Y2280200D02*
X3671100D01*
G01X8185700Y2091700D02*
Y2234400D01*
G54D12*
G01X94680Y1221430D02*
X88330Y1211780D01*
X84100Y1200530D01*
Y1187660D01*
X90450Y1173180D01*
X101030Y1161930D01*
X113730Y1153880D01*
X134900Y1147450D01*
X153950Y1145840D01*
X173000Y1149060D01*
X185700Y1153880D01*
X198400Y1163530D01*
X206870Y1174790D01*
X211100Y1186050D01*
Y1197310D01*
X206870Y1208570D01*
X200520Y1218220D01*
X192050Y1226260D01*
G01X211100Y1315550D02*
X84100D01*
X109500Y1296250D01*
G01X211100D02*
Y1334850D01*
G01X84100Y1445050D02*
X88330Y1432180D01*
X98920Y1422530D01*
X111610Y1416100D01*
X128550Y1411270D01*
X147600Y1409670D01*
X166650Y1411270D01*
X183590Y1416100D01*
X196290Y1422530D01*
X206870Y1432180D01*
X211100Y1445050D01*
X206870Y1457920D01*
X196290Y1467570D01*
X183590Y1474000D01*
X166650Y1478830D01*
X147600Y1480430D01*
X128550Y1478830D01*
X111610Y1474000D01*
X98920Y1467570D01*
X88330Y1457920D01*
X84100Y1445050D01*
G01X293880Y3364100D02*
X301930Y3351400D01*
X311570Y3342930D01*
X322830Y3338700D01*
X335700Y3342930D01*
X345350Y3351400D01*
X355000Y3364100D01*
X358220Y3381030D01*
Y3465700D01*
G01X455550Y3338700D02*
Y3465700D01*
X436250Y3440300D01*
G01Y3338700D02*
X474850D01*
G01X874070Y158180D02*
X883720Y151830D01*
X894970Y147600D01*
X907840D01*
X922320Y153950D01*
X933570Y164530D01*
X941620Y177230D01*
X948050Y198400D01*
X949660Y217450D01*
X946440Y236500D01*
X941620Y249200D01*
X931970Y261900D01*
X920710Y270370D01*
X909450Y274600D01*
X898190D01*
X886930Y270370D01*
X877280Y264020D01*
X869240Y255550D01*
G01X810510Y221690D02*
X799250Y206870D01*
X789600Y198400D01*
X776730Y194170D01*
X765470Y198400D01*
X757430Y206870D01*
X751000Y219570D01*
X749390Y234380D01*
X751000Y247090D01*
X757430Y259790D01*
X767080Y270370D01*
X778340Y274600D01*
X791210Y270370D01*
X802470Y257670D01*
X808900Y238620D01*
X810510Y217450D01*
X807290Y189940D01*
X802470Y175110D01*
X794430Y160300D01*
X783170Y149720D01*
X771910Y147600D01*
X760650Y151830D01*
X752610Y162420D01*
G01X1411930Y984820D02*
X1402280Y991170D01*
X1391030Y995400D01*
X1378160D01*
X1363680Y989050D01*
X1352430Y978470D01*
X1344380Y965770D01*
X1337950Y944600D01*
X1336340Y925550D01*
X1339560Y906500D01*
X1344380Y893800D01*
X1354030Y881100D01*
X1365290Y872630D01*
X1376550Y868400D01*
X1387810D01*
X1399070Y872630D01*
X1408720Y878980D01*
X1416760Y887450D01*
G01X1470670D02*
X1480310Y876860D01*
X1491570Y870520D01*
X1506050Y868400D01*
X1520530Y872630D01*
X1531780Y881100D01*
X1539830Y895910D01*
X1541430Y912850D01*
X1538220Y929780D01*
X1530170Y940370D01*
X1518920Y948830D01*
X1507660Y950950D01*
X1496400Y948830D01*
X1481930Y940370D01*
X1486750Y995400D01*
X1530170D01*
G01X1925920Y1385900D02*
Y1258900D01*
X1885710D01*
X1872840Y1265250D01*
X1864800Y1273720D01*
X1861580Y1290650D01*
X1864800Y1307580D01*
X1874450Y1318170D01*
X1885710Y1324520D01*
X1925920D01*
G01X1885710D02*
X1861580Y1385900D01*
G01X1794810Y1280070D02*
X1785160Y1267370D01*
X1773900Y1261020D01*
X1761030Y1258900D01*
X1744950Y1263130D01*
X1733690Y1273720D01*
X1730470Y1286410D01*
X1732080Y1299120D01*
X1738520Y1309700D01*
X1770680Y1330870D01*
X1785160Y1345680D01*
X1794810Y1366850D01*
X1798030Y1385900D01*
X1730470D01*
G01X1862420Y2592400D02*
Y2465400D01*
X1822210D01*
X1809340Y2471750D01*
X1801300Y2480220D01*
X1798080Y2497150D01*
X1801300Y2514080D01*
X1810950Y2524670D01*
X1822210Y2531020D01*
X1862420D01*
G01X1822210D02*
X1798080Y2592400D01*
G01X1681450D02*
Y2465400D01*
X1740960Y2556420D01*
X1660540D01*
G01X1862420Y2020900D02*
Y1893900D01*
X1822210D01*
X1809340Y1900250D01*
X1801300Y1908720D01*
X1798080Y1925650D01*
X1801300Y1942580D01*
X1810950Y1953170D01*
X1822210Y1959520D01*
X1862420D01*
G01X1822210D02*
X1798080Y2020900D01*
G01X1736130Y1995500D02*
X1726490Y2010320D01*
X1713620Y2018780D01*
X1699140Y2020900D01*
X1686270Y2018780D01*
X1673410Y2008200D01*
X1665370Y1995500D01*
X1663760Y1982800D01*
X1666970Y1967990D01*
X1678230Y1957400D01*
X1689490Y1953170D01*
X1703970D01*
G01X1689490D02*
X1679840Y1946820D01*
X1671800Y1936240D01*
X1668580Y1923530D01*
X1671800Y1910830D01*
X1679840Y1900250D01*
X1694320Y1893900D01*
X1708790Y1896020D01*
X1723270Y1904480D01*
G01X1798920Y3036900D02*
Y2909900D01*
X1758710D01*
X1745840Y2916250D01*
X1737800Y2924720D01*
X1734580Y2941650D01*
X1737800Y2958580D01*
X1747450Y2969170D01*
X1758710Y2975520D01*
X1798920D01*
G01X1758710D02*
X1734580Y3036900D01*
G01X1637250D02*
Y2909900D01*
X1656550Y2935300D01*
G01Y3036900D02*
X1617950D01*
G01X1488450D02*
Y2909900D01*
X1547960Y3000920D01*
X1467540D01*
G01X2300930Y984820D02*
X2291280Y991170D01*
X2280030Y995400D01*
X2267160D01*
X2252680Y989050D01*
X2241430Y978470D01*
X2233380Y965770D01*
X2226950Y944600D01*
X2225340Y925550D01*
X2228560Y906500D01*
X2233380Y893800D01*
X2243030Y881100D01*
X2254290Y872630D01*
X2265550Y868400D01*
X2276810D01*
X2288070Y872630D01*
X2297720Y878980D01*
X2305760Y887450D01*
G01X2367710Y883210D02*
X2378970Y872630D01*
X2391830Y868400D01*
X2404700Y872630D01*
X2415960Y885330D01*
X2424000Y904380D01*
X2427220Y923430D01*
Y946720D01*
X2424000Y965770D01*
X2415960Y982700D01*
X2406310Y991170D01*
X2395050Y995400D01*
X2382180Y991170D01*
X2372530Y982700D01*
X2366100Y970000D01*
X2362880Y953060D01*
X2366100Y938250D01*
X2374140Y923430D01*
X2383790Y914960D01*
X2395050Y912850D01*
X2407920Y917080D01*
X2417570Y927670D01*
X2427220Y946720D01*
G01X2157600Y4151120D02*
X2144900Y4143070D01*
X2136430Y4133430D01*
X2132200Y4122170D01*
X2136430Y4109300D01*
X2144900Y4099650D01*
X2157600Y4090000D01*
X2174530Y4086780D01*
X2259200D01*
G01X2132200Y3970150D02*
X2259200D01*
X2168180Y4029660D01*
Y3949240D01*
G01X3253430Y984820D02*
X3243780Y991170D01*
X3232530Y995400D01*
X3219660D01*
X3205180Y989050D01*
X3193930Y978470D01*
X3185880Y965770D01*
X3179450Y944600D01*
X3177840Y925550D01*
X3181060Y906500D01*
X3185880Y893800D01*
X3195530Y881100D01*
X3206790Y872630D01*
X3218050Y868400D01*
X3229310D01*
X3240570Y872630D01*
X3250220Y878980D01*
X3258260Y887450D01*
G01X3312170Y893800D02*
X3321810Y878980D01*
X3334680Y870520D01*
X3349160Y868400D01*
X3362030Y870520D01*
X3374890Y881100D01*
X3382930Y893800D01*
X3384540Y906500D01*
X3381330Y921310D01*
X3370070Y931900D01*
X3358810Y936130D01*
X3344330D01*
G01X3358810D02*
X3368460Y942480D01*
X3376500Y953060D01*
X3379720Y965770D01*
X3376500Y978470D01*
X3368460Y989050D01*
X3353980Y995400D01*
X3339510Y993280D01*
X3325030Y984820D01*
G01X3639950Y1258900D02*
Y1201750D01*
X3672120Y1131900D01*
G01X3607780D02*
X3639950Y1201750D01*
G01X3541010Y1153070D02*
X3531360Y1140370D01*
X3520100Y1134020D01*
X3507230Y1131900D01*
X3491150Y1136130D01*
X3479890Y1146720D01*
X3476670Y1159410D01*
X3478280Y1172120D01*
X3484720Y1182700D01*
X3516880Y1203870D01*
X3531360Y1218680D01*
X3541010Y1239850D01*
X3544230Y1258900D01*
X3476670D01*
G01X3659900Y1716370D02*
X3750920D01*
X3769970Y1722800D01*
X3782670Y1735670D01*
X3786900Y1751750D01*
X3782670Y1767830D01*
X3769970Y1780700D01*
X3750920Y1787130D01*
X3659900D01*
G01X3786900Y1881250D02*
X3659900D01*
X3685300Y1861950D01*
G01X3786900D02*
Y1900550D01*
G01X4493570Y158180D02*
X4503220Y151830D01*
X4514470Y147600D01*
X4527340D01*
X4541820Y153950D01*
X4553070Y164530D01*
X4561120Y177230D01*
X4567550Y198400D01*
X4569160Y217450D01*
X4565940Y236500D01*
X4561120Y249200D01*
X4551470Y261900D01*
X4540210Y270370D01*
X4528950Y274600D01*
X4517690D01*
X4506430Y270370D01*
X4496780Y264020D01*
X4488740Y255550D01*
G01X4430010Y168770D02*
X4420360Y156070D01*
X4409100Y149720D01*
X4396230Y147600D01*
X4380150Y151830D01*
X4368890Y162420D01*
X4365670Y175110D01*
X4367280Y187820D01*
X4373720Y198400D01*
X4405880Y219570D01*
X4420360Y234380D01*
X4430010Y255550D01*
X4433230Y274600D01*
X4365670D01*
G01X4412680Y2554930D02*
X4406330Y2545280D01*
X4402100Y2534030D01*
Y2521160D01*
X4408450Y2506680D01*
X4419030Y2495430D01*
X4431730Y2487380D01*
X4452900Y2480950D01*
X4471950Y2479340D01*
X4491000Y2482560D01*
X4503700Y2487380D01*
X4516400Y2497030D01*
X4524870Y2508290D01*
X4529100Y2519550D01*
Y2530810D01*
X4524870Y2542070D01*
X4518520Y2551720D01*
X4510050Y2559760D01*
G01X4529100Y2668350D02*
X4402100D01*
X4493120Y2608840D01*
Y2689260D01*
G01X4614580Y3821100D02*
Y3948100D01*
X4654790D01*
X4667660Y3941750D01*
X4675700Y3933280D01*
X4678920Y3916350D01*
X4675700Y3899420D01*
X4666050Y3888830D01*
X4654790Y3882480D01*
X4614580D01*
G01X4654790D02*
X4678920Y3821100D01*
G01X4773030D02*
X4776250Y3848610D01*
X4781080Y3871900D01*
X4787510Y3893070D01*
X4795550Y3916350D01*
X4808420Y3948100D01*
X4744080D01*
G01X5239320Y1826570D02*
X5245670Y1836220D01*
X5249900Y1847470D01*
Y1860340D01*
X5243550Y1874820D01*
X5232970Y1886070D01*
X5220270Y1894120D01*
X5199100Y1900550D01*
X5180050Y1902160D01*
X5161000Y1898940D01*
X5148300Y1894120D01*
X5135600Y1884470D01*
X5127130Y1873210D01*
X5122900Y1861950D01*
Y1850690D01*
X5127130Y1839430D01*
X5133480Y1829780D01*
X5141950Y1821740D01*
G01X5122900Y1732450D02*
X5249900D01*
X5224500Y1751750D01*
G01X5122900D02*
Y1713150D01*
G01X6370920Y1195400D02*
Y1068400D01*
X6330710D01*
X6317840Y1074750D01*
X6309800Y1083220D01*
X6306580Y1100150D01*
X6309800Y1117080D01*
X6319450Y1127670D01*
X6330710Y1134020D01*
X6370920D01*
G01X6330710D02*
X6306580Y1195400D01*
G01X6239810Y1142490D02*
X6228550Y1127670D01*
X6218900Y1119200D01*
X6206030Y1114970D01*
X6194770Y1119200D01*
X6186730Y1127670D01*
X6180300Y1140370D01*
X6178690Y1155180D01*
X6180300Y1167890D01*
X6186730Y1180590D01*
X6196380Y1191170D01*
X6207640Y1195400D01*
X6220510Y1191170D01*
X6231770Y1178470D01*
X6238200Y1159420D01*
X6239810Y1138250D01*
X6236590Y1110740D01*
X6231770Y1095910D01*
X6223730Y1081100D01*
X6212470Y1070520D01*
X6201210Y1068400D01*
X6189950Y1072630D01*
X6181910Y1083220D01*
G01X6434420Y560400D02*
Y433400D01*
X6394210D01*
X6381340Y439750D01*
X6373300Y448220D01*
X6370080Y465150D01*
X6373300Y482080D01*
X6382950Y492670D01*
X6394210Y499020D01*
X6434420D01*
G01X6394210D02*
X6370080Y560400D01*
G01X6308130Y541350D02*
X6298490Y551940D01*
X6287230Y558280D01*
X6272750Y560400D01*
X6258270Y556170D01*
X6247020Y547700D01*
X6238970Y532890D01*
X6237370Y515950D01*
X6240580Y499020D01*
X6248630Y488430D01*
X6259880Y479970D01*
X6271140Y477850D01*
X6282400Y479970D01*
X6296870Y488430D01*
X6292050Y433400D01*
X6248630D01*
G01X5948080Y1979600D02*
Y2106600D01*
X5988290D01*
X6001160Y2100250D01*
X6009200Y2091780D01*
X6012420Y2074850D01*
X6009200Y2057920D01*
X5999550Y2047330D01*
X5988290Y2040980D01*
X5948080D01*
G01X5988290D02*
X6012420Y1979600D01*
G01X6109750D02*
Y2106600D01*
X6090450Y2081200D01*
G01Y1979600D02*
X6129050D01*
G01X5948080Y2614600D02*
Y2741600D01*
X5988290D01*
X6001160Y2735250D01*
X6009200Y2726780D01*
X6012420Y2709850D01*
X6009200Y2692920D01*
X5999550Y2682330D01*
X5988290Y2675980D01*
X5948080D01*
G01X5988290D02*
X6012420Y2614600D01*
G01X6109750D02*
Y2741600D01*
X6090450Y2716200D01*
G01Y2614600D02*
X6129050D01*
G01X6239250D02*
Y2741600D01*
X6219950Y2716200D01*
G01Y2614600D02*
X6258550D01*
G01X5948080Y3186100D02*
Y3313100D01*
X5988290D01*
X6001160Y3306750D01*
X6009200Y3298280D01*
X6012420Y3281350D01*
X6009200Y3264420D01*
X5999550Y3253830D01*
X5988290Y3247480D01*
X5948080D01*
G01X5988290D02*
X6012420Y3186100D01*
G01X6109750D02*
Y3313100D01*
X6090450Y3287700D01*
G01Y3186100D02*
X6129050D01*
G01X6208690Y3291930D02*
X6218340Y3304630D01*
X6229600Y3310980D01*
X6242470Y3313100D01*
X6258550Y3308870D01*
X6269810Y3298280D01*
X6273030Y3285590D01*
X6271420Y3272880D01*
X6264980Y3262300D01*
X6232820Y3241130D01*
X6218340Y3226320D01*
X6208690Y3205150D01*
X6205470Y3186100D01*
X6273030D01*
G01X6434420Y3989400D02*
Y3862400D01*
X6394210D01*
X6381340Y3868750D01*
X6373300Y3877220D01*
X6370080Y3894150D01*
X6373300Y3911080D01*
X6382950Y3921670D01*
X6394210Y3928020D01*
X6434420D01*
G01X6394210D02*
X6370080Y3989400D01*
G01X6272750D02*
Y3862400D01*
X6292050Y3887800D01*
G01Y3989400D02*
X6253450D01*
G01X6178630Y3970350D02*
X6168990Y3980940D01*
X6157730Y3987280D01*
X6143250Y3989400D01*
X6128770Y3985170D01*
X6117520Y3976700D01*
X6109470Y3961890D01*
X6107870Y3944950D01*
X6111080Y3928020D01*
X6119130Y3917430D01*
X6130380Y3908970D01*
X6141640Y3906850D01*
X6152900Y3908970D01*
X6167370Y3917430D01*
X6162550Y3862400D01*
X6119130D01*
G01X6011580Y3757600D02*
Y3884600D01*
X6051790D01*
X6064660Y3878250D01*
X6072700Y3869780D01*
X6075920Y3852850D01*
X6072700Y3835920D01*
X6063050Y3825330D01*
X6051790Y3818980D01*
X6011580D01*
G01X6051790D02*
X6075920Y3757600D01*
G01X6173250D02*
Y3884600D01*
X6153950Y3859200D01*
G01Y3757600D02*
X6192550D01*
G01X6267370Y3783000D02*
X6277010Y3768180D01*
X6289880Y3759720D01*
X6304360Y3757600D01*
X6317230Y3759720D01*
X6330090Y3770300D01*
X6338130Y3783000D01*
X6339740Y3795700D01*
X6336530Y3810510D01*
X6325270Y3821100D01*
X6314010Y3825330D01*
X6299530D01*
G01X6314010D02*
X6323660Y3831680D01*
X6331700Y3842260D01*
X6334920Y3854970D01*
X6331700Y3867670D01*
X6323660Y3878250D01*
X6309180Y3884600D01*
X6294710Y3882480D01*
X6280230Y3874020D01*
G01X7637950Y2245600D02*
X7676550D01*
G01X7657250D02*
Y2118600D01*
G01X7637950D02*
X7676550D01*
G01X7822130Y2235020D02*
X7812480Y2241370D01*
X7801230Y2245600D01*
X7788360D01*
X7773880Y2239250D01*
X7762630Y2228670D01*
X7754580Y2215970D01*
X7748150Y2194800D01*
X7746540Y2175750D01*
X7749760Y2156700D01*
X7754580Y2144000D01*
X7764230Y2131300D01*
X7775490Y2122830D01*
X7786750Y2118600D01*
X7798010D01*
X7809270Y2122830D01*
X7818920Y2129180D01*
X7826960Y2137650D01*
G01X7916250Y2118600D02*
Y2245600D01*
X7896950Y2220200D01*
G01Y2118600D02*
X7935550D01*
G01X7405880Y3300600D02*
X7413930Y3287900D01*
X7423570Y3279430D01*
X7434830Y3275200D01*
X7447700Y3279430D01*
X7457350Y3287900D01*
X7467000Y3300600D01*
X7470220Y3317530D01*
Y3402200D01*
G01X7532170Y3300600D02*
X7541810Y3285780D01*
X7554680Y3277320D01*
X7569160Y3275200D01*
X7582030Y3277320D01*
X7594890Y3287900D01*
X7602930Y3300600D01*
X7604540Y3313300D01*
X7601330Y3328110D01*
X7590070Y3338700D01*
X7578810Y3342930D01*
X7564330D01*
G01X7578810D02*
X7588460Y3349280D01*
X7596500Y3359860D01*
X7599720Y3372570D01*
X7596500Y3385270D01*
X7588460Y3395850D01*
X7573980Y3402200D01*
X7559510Y3400080D01*
X7545030Y3391620D01*
G01X8466420Y560400D02*
Y433400D01*
X8426210D01*
X8413340Y439750D01*
X8405300Y448220D01*
X8402080Y465150D01*
X8405300Y482080D01*
X8414950Y492670D01*
X8426210Y499020D01*
X8466420D01*
G01X8426210D02*
X8402080Y560400D01*
G01X8304750D02*
X8293490Y558280D01*
X8280630Y551940D01*
X8272580Y541350D01*
X8269370Y526530D01*
X8272580Y511720D01*
X8282230Y499020D01*
X8296710Y492670D01*
X8312790D01*
X8322440Y488430D01*
X8330490Y477850D01*
X8333700Y463030D01*
X8328870Y448220D01*
X8317620Y437630D01*
X8304750Y433400D01*
X8291880Y437630D01*
X8280630Y448220D01*
X8275800Y463030D01*
X8279020Y477850D01*
X8287060Y488430D01*
X8296710Y492670D01*
X8312790D01*
X8327270Y499020D01*
X8336920Y511720D01*
X8340130Y526530D01*
X8336920Y541350D01*
X8328870Y551940D01*
X8316010Y558280D01*
X8304750Y560400D01*
G01X8466420Y1195400D02*
Y1068400D01*
X8426210D01*
X8413340Y1074750D01*
X8405300Y1083220D01*
X8402080Y1100150D01*
X8405300Y1117080D01*
X8414950Y1127670D01*
X8426210Y1134020D01*
X8466420D01*
G01X8426210D02*
X8402080Y1195400D01*
G01X8332090Y1180590D02*
X8320830Y1191170D01*
X8307970Y1195400D01*
X8295100Y1191170D01*
X8283840Y1178470D01*
X8275800Y1159420D01*
X8272580Y1140370D01*
Y1117080D01*
X8275800Y1098030D01*
X8283840Y1081100D01*
X8293490Y1072630D01*
X8304750Y1068400D01*
X8317620Y1072630D01*
X8327270Y1081100D01*
X8333700Y1093800D01*
X8336920Y1110740D01*
X8333700Y1125550D01*
X8325660Y1140370D01*
X8316010Y1148840D01*
X8304750Y1150950D01*
X8291880Y1146720D01*
X8282230Y1136130D01*
X8272580Y1117080D01*
G01X8850630Y3703600D02*
Y3576600D01*
X8818470D01*
X8805600Y3582950D01*
X8795950Y3591420D01*
X8787910Y3604110D01*
X8781470Y3618940D01*
X8779870Y3640100D01*
X8781470Y3661270D01*
X8787910Y3676090D01*
X8795950Y3688790D01*
X8805600Y3697250D01*
X8818470Y3703600D01*
X8850630D01*
G01X8685750D02*
Y3576600D01*
X8705050Y3602000D01*
G01Y3703600D02*
X8666450D01*
G01X9779000Y1252500D02*
Y652500D01*
G01X9917100Y2750950D02*
X9974250D01*
X10044100Y2783120D01*
G01Y2718780D02*
X9974250Y2750950D01*
G01X9917100Y2621450D02*
X10044100D01*
X10018700Y2640750D01*
G01X9917100D02*
Y2602150D01*
G01X9821580Y4138600D02*
Y4265600D01*
X9861790D01*
X9874660Y4259250D01*
X9882700Y4250780D01*
X9885920Y4233850D01*
X9882700Y4216920D01*
X9873050Y4206330D01*
X9861790Y4199980D01*
X9821580D01*
G01X9861790D02*
X9885920Y4138600D01*
G01X9983250D02*
Y4265600D01*
X9963950Y4240200D01*
G01Y4138600D02*
X10002550D01*
G01X10112750Y4265600D02*
X10099880Y4261370D01*
X10090230Y4250780D01*
X10083800Y4238090D01*
X10078970Y4221150D01*
X10077370Y4202100D01*
X10078970Y4183050D01*
X10083800Y4166110D01*
X10090230Y4153410D01*
X10099880Y4142830D01*
X10112750Y4138600D01*
X10125620Y4142830D01*
X10135270Y4153410D01*
X10141700Y4166110D01*
X10146530Y4183050D01*
X10148130Y4202100D01*
X10146530Y4221150D01*
X10141700Y4238090D01*
X10135270Y4250780D01*
X10125620Y4261370D01*
X10112750Y4265600D01*
G01X10890820Y2207570D02*
X10897170Y2217220D01*
X10901400Y2228470D01*
Y2241340D01*
X10895050Y2255820D01*
X10884470Y2267070D01*
X10871770Y2275120D01*
X10850600Y2281550D01*
X10831550Y2283160D01*
X10812500Y2279940D01*
X10799800Y2275120D01*
X10787100Y2265470D01*
X10778630Y2254210D01*
X10774400Y2242950D01*
Y2231690D01*
X10778630Y2220430D01*
X10784980Y2210780D01*
X10793450Y2202740D01*
G01X10774400Y2116670D02*
X10801910Y2113450D01*
X10825200Y2108620D01*
X10846370Y2102190D01*
X10869650Y2094150D01*
X10901400Y2081280D01*
Y2145620D01*
G01X10890820Y3160070D02*
X10897170Y3169720D01*
X10901400Y3180970D01*
Y3193840D01*
X10895050Y3208320D01*
X10884470Y3219570D01*
X10871770Y3227620D01*
X10850600Y3234050D01*
X10831550Y3235660D01*
X10812500Y3232440D01*
X10799800Y3227620D01*
X10787100Y3217970D01*
X10778630Y3206710D01*
X10774400Y3195450D01*
Y3184190D01*
X10778630Y3172930D01*
X10784980Y3163280D01*
X10793450Y3155240D01*
G01X10774400Y3065950D02*
X10776520Y3054690D01*
X10782860Y3041830D01*
X10793450Y3033780D01*
X10808270Y3030570D01*
X10823080Y3033780D01*
X10835780Y3043430D01*
X10842130Y3057910D01*
Y3073990D01*
X10846370Y3083640D01*
X10856950Y3091690D01*
X10871770Y3094900D01*
X10886580Y3090070D01*
X10897170Y3078820D01*
X10901400Y3065950D01*
X10897170Y3053080D01*
X10886580Y3041830D01*
X10871770Y3037000D01*
X10856950Y3040220D01*
X10846370Y3048260D01*
X10842130Y3057910D01*
Y3073990D01*
X10835780Y3088470D01*
X10823080Y3098120D01*
X10808270Y3101330D01*
X10793450Y3098120D01*
X10782860Y3090070D01*
X10776520Y3077210D01*
X10774400Y3065950D01*
M02*
