G04 ================== begin FILE IDENTIFICATION RECORD ==================*
G04 Layout Name:  C:/Users/user/Desktop/work/avrusb500/allegro/AVRUSB500.brd*
G04 Film Name:    SilkB*
G04 File Format:  Gerber RS274X*
G04 File Origin:  Cadence Allegro 16.6-S034*
G04 Origin Date:  Fri Jul 19 12:20:11 2019*
G04 *
G04 Layer:  REF DES/SILKSCREEN_BOTTOM*
G04 Layer:  PACKAGE GEOMETRY/SILKSCREEN_BOTTOM*
G04 Layer:  BOARD GEOMETRY/SILKSCREEN_BOTTOM*
G04 *
G04 Offset:    (0.0000 0.0000)*
G04 Mirror:    No*
G04 Mode:      Positive*
G04 Rotation:  0*
G04 FullContactRelief:  No*
G04 UndefLineWidth:     0.2000*
G04 ================== end FILE IDENTIFICATION RECORD ====================*
%FSLAX25Y25*MOMM*%
%IR0*IPPOS*OFA0.00000B0.00000*MIA0B0*SFA1.00000B1.00000*%
%ADD10C,.2*%
G75*
%LPD*%
G75*
G54D10*
G01X9313270Y478370D02*
X9308530Y474140D01*
X9304460Y473080D01*
X9299040Y475200D01*
X9294980Y480490D01*
X9292950Y490020D01*
Y536580D01*
G01Y553520D02*
X9294300Y554570D01*
Y556690D01*
X9292950Y557750D01*
X9291590Y556690D01*
Y554570D01*
X9292950Y553520D01*
G01X9256710Y522820D02*
X9235030D01*
X9237070Y530230D01*
X9240450Y534470D01*
X9245200Y536580D01*
X9249940Y535520D01*
X9254000Y532350D01*
X9256710Y524940D01*
X9258070Y518590D01*
Y512240D01*
X9256710Y505890D01*
X9253320Y499540D01*
X9249260Y495310D01*
X9244520Y494250D01*
X9239780Y496370D01*
X9235030Y502710D01*
G01X9190670Y494250D02*
X9194730Y495310D01*
X9198800Y499540D01*
X9201510Y506950D01*
X9202860Y515420D01*
X9201510Y523880D01*
X9198800Y531290D01*
X9194730Y535520D01*
X9190670Y536580D01*
X9186610Y535520D01*
X9182540Y531290D01*
X9179830Y523880D01*
X9179150Y515420D01*
X9179830Y506950D01*
X9182540Y499540D01*
X9186610Y495310D01*
X9190670Y494250D01*
G01X9146310D02*
Y536580D01*
G01Y526000D02*
X9143600Y531290D01*
X9139530Y535520D01*
X9134110Y536580D01*
X9129370Y535520D01*
X9125310Y531290D01*
X9123270Y523880D01*
Y494250D01*
G01X9089070Y501660D02*
X9085680Y497420D01*
X9080940Y494250D01*
X9076880D01*
X9072810Y496370D01*
X9070100Y499540D01*
X9068750Y503770D01*
X9069430Y510130D01*
X9072140Y513300D01*
X9084330Y519650D01*
X9087040Y527060D01*
X9085680Y532350D01*
X9082970Y535520D01*
X9078910Y536580D01*
X9074850Y535520D01*
X9070780Y532350D01*
G01X9010840Y494250D02*
Y536580D01*
G01Y529180D02*
X9013550Y533410D01*
X9017610Y535520D01*
X9022350Y536580D01*
X9027090Y534470D01*
X9031160Y530230D01*
X9033870Y523880D01*
X9035220Y515420D01*
X9033870Y506950D01*
X9031160Y500600D01*
X9027090Y496370D01*
X9022350Y494250D01*
X9017610Y495310D01*
X9013550Y498480D01*
X9010840Y502710D01*
G01X8978670Y494250D02*
Y536580D01*
G01Y526000D02*
X8975960Y531290D01*
X8971890Y535520D01*
X8966470Y536580D01*
X8961730Y535520D01*
X8957670Y531290D01*
X8955630Y523880D01*
Y494250D01*
G01X8920750Y478370D02*
X8916010Y474140D01*
X8910590Y473080D01*
X8905850Y474140D01*
X8901790Y479430D01*
X8899080Y486840D01*
Y536580D01*
G01Y528120D02*
X8901790Y532350D01*
X8905850Y535520D01*
X8910590Y536580D01*
X8916010Y534470D01*
X8919400Y530230D01*
X8922110Y522820D01*
X8923460Y515420D01*
X8922790Y509070D01*
X8920080Y501660D01*
X8916010Y496370D01*
X8910590Y494250D01*
X8906530Y495310D01*
X8901790Y499540D01*
X8899080Y503770D01*
G01X8866910Y494250D02*
Y557750D01*
G01Y527060D02*
X8863520Y532350D01*
X8860130Y535520D01*
X8854710Y536580D01*
X8850650Y535520D01*
X8845910Y531290D01*
X8843870Y524940D01*
Y494250D01*
G01X8813730Y475200D02*
X8809670Y473080D01*
X8804250Y475200D01*
X8800860Y479430D01*
X8798160Y484730D01*
X8794090Y501660D01*
X8785290Y536580D01*
G01X8806960D02*
X8794090Y501660D01*
G01X8753790Y522820D02*
X8732110D01*
X8734150Y530230D01*
X8737530Y534470D01*
X8742280Y536580D01*
X8747020Y535520D01*
X8751080Y532350D01*
X8753790Y524940D01*
X8755150Y518590D01*
Y512240D01*
X8753790Y505890D01*
X8750400Y499540D01*
X8746340Y495310D01*
X8741600Y494250D01*
X8736860Y496370D01*
X8732110Y502710D01*
G01X8687750Y494250D02*
X8691810Y495310D01*
X8695880Y499540D01*
X8698590Y506950D01*
X8699940Y515420D01*
X8698590Y523880D01*
X8695880Y531290D01*
X8691810Y535520D01*
X8687750Y536580D01*
X8683690Y535520D01*
X8679620Y531290D01*
X8676910Y523880D01*
X8676230Y515420D01*
X8676910Y506950D01*
X8679620Y499540D01*
X8683690Y495310D01*
X8687750Y494250D01*
G01X8643390D02*
Y536580D01*
G01Y526000D02*
X8640680Y531290D01*
X8636610Y535520D01*
X8631190Y536580D01*
X8626450Y535520D01*
X8622390Y531290D01*
X8620350Y523880D01*
Y494250D01*
G01X9045480Y1281450D02*
X9042090Y1275100D01*
X9038030Y1270870D01*
X9033280Y1268750D01*
X9027870Y1270870D01*
X9023800Y1275100D01*
X9019740Y1281450D01*
X9018380Y1289920D01*
Y1332250D01*
G01X8986210Y1297320D02*
X8964530D01*
X8966570Y1304730D01*
X8969950Y1308970D01*
X8974700Y1311080D01*
X8979440Y1310020D01*
X8983500Y1306850D01*
X8986210Y1299440D01*
X8987570Y1293090D01*
Y1286740D01*
X8986210Y1280390D01*
X8982820Y1274040D01*
X8978760Y1269810D01*
X8974020Y1268750D01*
X8969280Y1270870D01*
X8964530Y1277210D01*
G01X8920170Y1268750D02*
X8924230Y1269810D01*
X8928300Y1274040D01*
X8931010Y1281450D01*
X8932360Y1289920D01*
X8931010Y1298380D01*
X8928300Y1305790D01*
X8924230Y1310020D01*
X8920170Y1311080D01*
X8916110Y1310020D01*
X8912040Y1305790D01*
X8909330Y1298380D01*
X8908650Y1289920D01*
X8909330Y1281450D01*
X8912040Y1274040D01*
X8916110Y1269810D01*
X8920170Y1268750D01*
G01X8875810D02*
Y1311080D01*
G01Y1300500D02*
X8873100Y1305790D01*
X8869030Y1310020D01*
X8863610Y1311080D01*
X8858870Y1310020D01*
X8854810Y1305790D01*
X8852770Y1298380D01*
Y1268750D01*
G01X8818570Y1276160D02*
X8815180Y1271920D01*
X8810440Y1268750D01*
X8806380D01*
X8802310Y1270870D01*
X8799600Y1274040D01*
X8798250Y1278270D01*
X8798930Y1284630D01*
X8801640Y1287800D01*
X8813830Y1294150D01*
X8816540Y1301560D01*
X8815180Y1306850D01*
X8812470Y1310020D01*
X8808410Y1311080D01*
X8804350Y1310020D01*
X8800280Y1306850D01*
G01X8740340Y1268750D02*
Y1311080D01*
G01Y1303680D02*
X8743050Y1307910D01*
X8747110Y1310020D01*
X8751850Y1311080D01*
X8756590Y1308970D01*
X8760660Y1304730D01*
X8763370Y1298380D01*
X8764720Y1289920D01*
X8763370Y1281450D01*
X8760660Y1275100D01*
X8756590Y1270870D01*
X8751850Y1268750D01*
X8747110Y1269810D01*
X8743050Y1272980D01*
X8740340Y1277210D01*
G01X8708170Y1268750D02*
Y1311080D01*
G01Y1300500D02*
X8705460Y1305790D01*
X8701390Y1310020D01*
X8695970Y1311080D01*
X8691230Y1310020D01*
X8687170Y1305790D01*
X8685130Y1298380D01*
Y1268750D01*
G01X8650250Y1252870D02*
X8645510Y1248640D01*
X8640090Y1247580D01*
X8635350Y1248640D01*
X8631290Y1253930D01*
X8628580Y1261340D01*
Y1311080D01*
G01Y1302620D02*
X8631290Y1306850D01*
X8635350Y1310020D01*
X8640090Y1311080D01*
X8645510Y1308970D01*
X8648900Y1304730D01*
X8651610Y1297320D01*
X8652960Y1289920D01*
X8652290Y1283570D01*
X8649580Y1276160D01*
X8645510Y1270870D01*
X8640090Y1268750D01*
X8636030Y1269810D01*
X8631290Y1274040D01*
X8628580Y1278270D01*
G01X8596410Y1268750D02*
Y1332250D01*
G01Y1301560D02*
X8593020Y1306850D01*
X8589630Y1310020D01*
X8584210Y1311080D01*
X8580150Y1310020D01*
X8575410Y1305790D01*
X8573370Y1299440D01*
Y1268750D01*
G01X8543230Y1249700D02*
X8539170Y1247580D01*
X8533750Y1249700D01*
X8530360Y1253930D01*
X8527660Y1259230D01*
X8523590Y1276160D01*
X8514790Y1311080D01*
G01X8536460D02*
X8523590Y1276160D01*
G01X8483290Y1297320D02*
X8461610D01*
X8463650Y1304730D01*
X8467030Y1308970D01*
X8471780Y1311080D01*
X8476520Y1310020D01*
X8480580Y1306850D01*
X8483290Y1299440D01*
X8484650Y1293090D01*
Y1286740D01*
X8483290Y1280390D01*
X8479900Y1274040D01*
X8475840Y1269810D01*
X8471100Y1268750D01*
X8466360Y1270870D01*
X8461610Y1277210D01*
G01X8417250Y1268750D02*
X8421310Y1269810D01*
X8425380Y1274040D01*
X8428090Y1281450D01*
X8429440Y1289920D01*
X8428090Y1298380D01*
X8425380Y1305790D01*
X8421310Y1310020D01*
X8417250Y1311080D01*
X8413190Y1310020D01*
X8409120Y1305790D01*
X8406410Y1298380D01*
X8405730Y1289920D01*
X8406410Y1281450D01*
X8409120Y1274040D01*
X8413190Y1269810D01*
X8417250Y1268750D01*
G01X8372890D02*
Y1311080D01*
G01Y1300500D02*
X8370180Y1305790D01*
X8366110Y1310020D01*
X8360690Y1311080D01*
X8355950Y1310020D01*
X8351890Y1305790D01*
X8349850Y1298380D01*
Y1268750D01*
G01X9302430Y415510D02*
Y479010D01*
X9310560Y466310D01*
G01Y415510D02*
X9294300D01*
G01X9258070Y422920D02*
X9253320Y417630D01*
X9247900Y415510D01*
X9242490Y417630D01*
X9237740Y423970D01*
X9234360Y433500D01*
X9233000Y443030D01*
Y454670D01*
X9234360Y464190D01*
X9237740Y472660D01*
X9241810Y476890D01*
X9246550Y479010D01*
X9251970Y476890D01*
X9256030Y472660D01*
X9258740Y466310D01*
X9260100Y457840D01*
X9258740Y450440D01*
X9255360Y443030D01*
X9251290Y438790D01*
X9246550Y437730D01*
X9241130Y439850D01*
X9237070Y445140D01*
X9233000Y454670D01*
G01X9190670Y479010D02*
X9196090Y476890D01*
X9200150Y471600D01*
X9202860Y465250D01*
X9204890Y456780D01*
X9205570Y447260D01*
X9204890Y437730D01*
X9202860Y429270D01*
X9200150Y422920D01*
X9196090Y417630D01*
X9190670Y415510D01*
X9185250Y417630D01*
X9181190Y422920D01*
X9178480Y429270D01*
X9176450Y437730D01*
X9175770Y447260D01*
X9176450Y456780D01*
X9178480Y465250D01*
X9181190Y471600D01*
X9185250Y476890D01*
X9190670Y479010D01*
G01X9136140Y415510D02*
X9134790Y429270D01*
X9132760Y440910D01*
X9130050Y451490D01*
X9126660Y463130D01*
X9121240Y479010D01*
X9148340D01*
G01X9078910Y415510D02*
Y479010D01*
X9087040Y466310D01*
G01Y415510D02*
X9070780D01*
G01X9023030D02*
X9018290Y416570D01*
X9012870Y419740D01*
X9009480Y425030D01*
X9008130Y432440D01*
X9009480Y439850D01*
X9013550Y446200D01*
X9019640Y449380D01*
X9026420D01*
X9030480Y451490D01*
X9033870Y456780D01*
X9035220Y464190D01*
X9033190Y471600D01*
X9028450Y476890D01*
X9023030Y479010D01*
X9017610Y476890D01*
X9012870Y471600D01*
X9010840Y464190D01*
X9012190Y456780D01*
X9015580Y451490D01*
X9019640Y449380D01*
X9026420D01*
X9032510Y446200D01*
X9036580Y439850D01*
X9037930Y432440D01*
X9036580Y425030D01*
X9033190Y419740D01*
X9027770Y416570D01*
X9023030Y415510D01*
G01X9031930Y1190010D02*
Y1253510D01*
X9040060Y1240810D01*
G01Y1190010D02*
X9023800D01*
G01X8987570Y1197420D02*
X8982820Y1192130D01*
X8977400Y1190010D01*
X8971990Y1192130D01*
X8967240Y1198470D01*
X8963860Y1208000D01*
X8962500Y1217530D01*
Y1229170D01*
X8963860Y1238690D01*
X8967240Y1247160D01*
X8971310Y1251390D01*
X8976050Y1253510D01*
X8981470Y1251390D01*
X8985530Y1247160D01*
X8988240Y1240810D01*
X8989600Y1232340D01*
X8988240Y1224940D01*
X8984860Y1217530D01*
X8980790Y1213290D01*
X8976050Y1212230D01*
X8970630Y1214350D01*
X8966570Y1219640D01*
X8962500Y1229170D01*
G01X8920170Y1253510D02*
X8925590Y1251390D01*
X8929650Y1246100D01*
X8932360Y1239750D01*
X8934390Y1231280D01*
X8935070Y1221760D01*
X8934390Y1212230D01*
X8932360Y1203770D01*
X8929650Y1197420D01*
X8925590Y1192130D01*
X8920170Y1190010D01*
X8914750Y1192130D01*
X8910690Y1197420D01*
X8907980Y1203770D01*
X8905950Y1212230D01*
X8905270Y1221760D01*
X8905950Y1231280D01*
X8907980Y1239750D01*
X8910690Y1246100D01*
X8914750Y1251390D01*
X8920170Y1253510D01*
G01X8865640Y1190010D02*
X8864290Y1203770D01*
X8862260Y1215410D01*
X8859550Y1225990D01*
X8856160Y1237630D01*
X8850740Y1253510D01*
X8877840D01*
G01X8808410Y1190010D02*
Y1253510D01*
X8816540Y1240810D01*
G01Y1190010D02*
X8800280D01*
G01X8752530D02*
X8747790Y1191070D01*
X8742370Y1194240D01*
X8738980Y1199530D01*
X8737630Y1206940D01*
X8738980Y1214350D01*
X8743050Y1220700D01*
X8749140Y1223880D01*
X8755920D01*
X8759980Y1225990D01*
X8763370Y1231280D01*
X8764720Y1238690D01*
X8762690Y1246100D01*
X8757950Y1251390D01*
X8752530Y1253510D01*
X8747110Y1251390D01*
X8742370Y1246100D01*
X8740340Y1238690D01*
X8741690Y1231280D01*
X8745080Y1225990D01*
X8749140Y1223880D01*
X8755920D01*
X8762010Y1220700D01*
X8766080Y1214350D01*
X8767430Y1206940D01*
X8766080Y1199530D01*
X8762690Y1194240D01*
X8757270Y1191070D01*
X8752530Y1190010D01*
M02*
