G04 ================== begin FILE IDENTIFICATION RECORD ==================*
G04 Layout Name:  C:/Users/user/Desktop/work/avrusb500/allegro/AVRUSB500.brd*
G04 Film Name:    SolderB*
G04 File Format:  Gerber RS274X*
G04 File Origin:  Cadence Allegro 16.6-S034*
G04 Origin Date:  Fri Jul 19 12:20:11 2019*
G04 *
G04 Layer:  VIA CLASS/SOLDERMASK_BOTTOM*
G04 Layer:  PIN/SOLDERMASK_BOTTOM*
G04 Layer:  PACKAGE GEOMETRY/SOLDERMASK_TOP*
G04 Layer:  BOARD GEOMETRY/SOLDERMASK_BOTTOM*
G04 *
G04 Offset:    (0.0000 0.0000)*
G04 Mirror:    No*
G04 Mode:      Positive*
G04 Rotation:  0*
G04 FullContactRelief:  No*
G04 UndefLineWidth:     0.0000*
G04 ================== end FILE IDENTIFICATION RECORD ====================*
%FSLAX25Y25*MOMM*%
%IR0*IPPOS*OFA0.00000B0.00000*MIA0B0*SFA1.00000B1.00000*%
%ADD15O,1.8999X1.1999*%
%ADD13C,1.3211*%
%ADD14C,1.118*%
%ADD12R,1.3211X1.3211*%
%ADD10C,1.5751*%
%ADD11R,1.5751X1.5751*%
%LPD*%
G75*
G54D10*
X381000Y2159000D03*
Y2413000D03*
Y2667000D03*
Y2921000D03*
X952500Y4064000D03*
X1206500D03*
X1460500D03*
X1714500D03*
X7493000Y2603500D03*
Y2349500D03*
Y2095500D03*
Y2857500D03*
G54D11*
X381000Y3175000D03*
X1968500Y4064000D03*
X7493000Y3111500D03*
G54D12*
X825500Y571500D03*
X508000Y1270000D03*
X1460500Y571500D03*
X2349500D03*
X3302000D03*
X4445000D03*
X4826000Y1778000D03*
Y2603500D03*
X8826500Y4000500D03*
X10477500Y2159000D03*
Y3111500D03*
G54D13*
X571500Y571500D03*
X508000Y1524000D03*
X1143000Y2159000D03*
X1079500Y3175000D03*
X1143000Y2730500D03*
X1714500Y571500D03*
X1206500Y1524000D03*
X2603500Y571500D03*
X2222500Y1524000D03*
X2159000Y2159000D03*
X2095500Y3175000D03*
X2159000Y2730500D03*
X3048000Y1524000D03*
X3556000Y571500D03*
X4191000D03*
X3810000Y1524000D03*
X4826000D03*
Y2857500D03*
X4318000Y3683000D03*
X5715000Y698500D03*
X5651500Y1841500D03*
Y1333500D03*
Y2476500D03*
Y3048000D03*
X5715000Y4127500D03*
Y3619500D03*
X5334000Y3683000D03*
X6731000Y698500D03*
X6667500Y1841500D03*
Y1333500D03*
Y2476500D03*
Y3048000D03*
X6731000Y4127500D03*
Y3619500D03*
X7747000Y698500D03*
Y1333500D03*
X8763000Y698500D03*
Y1333500D03*
X8509000Y4000500D03*
X9525000D03*
X9652000Y2159000D03*
Y2921000D03*
X10477500Y1905000D03*
Y2857500D03*
X10541000Y4000500D03*
G54D14*
X2095500Y571500D03*
X3111500Y1905000D03*
X3048000Y2667000D03*
X3365500Y2540000D03*
X3238500D03*
X3302000Y3302000D03*
X3492500Y2603500D03*
X4127500Y2984500D03*
X4889500Y2159000D03*
X4635500Y2349500D03*
X4445000Y2832100D03*
X5270500Y2349500D03*
X6985000Y1206500D03*
X6667500Y2159000D03*
X7556500Y1587500D03*
X8382000Y1841500D03*
X8255000D03*
X8575000Y2415500D03*
X8694400Y3434100D03*
X8636000Y3365500D03*
X8890000Y1587500D03*
X9334500Y3172450D03*
X8816300Y3502700D03*
G54D15*
X10149000Y440000D03*
X9779000D03*
X10149000Y1465000D03*
X9779000D03*
M02*
